<svg width="24" height="24" viewBox="0 0 24 24" fill="none" xmlns="http://www.w3.org/2000/svg">
<path d="M2.69444 12.9779L12 3.61765L21.3056 12.9779H18.3889V20.3824H5.61111V12.9779H2.69444Z" fill="#CCDEEE"/>
<path d="M21.5853 11.8475L12.4898 2.70309C12.3596 2.57301 12.1835 2.5 12 2.5C11.8165 2.5 11.6405 2.57301 11.5103 2.70309L2.41483 11.8475C2.28143 11.9811 2.176 12.1403 2.10477 12.3156C2.03354 12.4909 1.99795 12.6788 2.00009 12.8682C2.00892 13.6493 2.65528 14.2728 3.43181 14.2728H4.36937V21.5H19.6307V14.2728H20.5881C20.9654 14.2728 21.3205 14.1241 21.5875 13.8556C21.7189 13.7239 21.823 13.5672 21.8938 13.3946C21.9647 13.2221 22.0007 13.0371 22 12.8504C22 12.4732 21.8522 12.116 21.5853 11.8475ZM13.2354 19.9023H10.7647V15.3756H13.2354V19.9023ZM18.0424 12.6751V19.9023H14.6473V14.8431C14.6473 14.3527 14.2524 13.9555 13.7649 13.9555H10.2352C9.74768 13.9555 9.3528 14.3527 9.3528 14.8431V19.9023H5.95771V12.6751H3.83992L12.0022 4.47161L20.1624 12.6751H18.0424Z" fill="#025CAC"/>
</svg>
