<svg width="30" height="31" viewBox="0 0 30 31" fill="none" xmlns="http://www.w3.org/2000/svg">
<rect width="30" height="31" rx="15" fill="#DADCDD"/>
<path d="M11.2987 10.8743H12.7463V17.6988C12.7463 18.3161 12.6241 18.844 12.3797 19.2827C12.1385 19.7214 11.7985 20.0566 11.3598 20.2885C10.9212 20.5172 10.4073 20.6316 9.81822 20.6316C9.27615 20.6316 8.78892 20.5329 8.35651 20.3355C7.92724 20.1381 7.58727 19.8514 7.33661 19.4754C7.08907 19.0963 6.9653 18.6357 6.9653 18.0936H8.40821C8.40821 18.3599 8.46931 18.5902 8.59152 18.7845C8.71685 18.9788 8.88762 19.1307 9.10382 19.2404C9.32315 19.3469 9.57382 19.4002 9.85582 19.4002C10.1629 19.4002 10.423 19.336 10.636 19.2075C10.8522 19.0759 11.0167 18.8832 11.1295 18.6294C11.2423 18.3756 11.2987 18.0654 11.2987 17.6988V10.8743ZM18.0204 20.5H14.9043V10.8743H18.1191C19.0623 10.8743 19.8722 11.067 20.549 11.4524C21.2258 11.8347 21.7444 12.3846 22.1048 13.1021C22.4682 13.8166 22.65 14.6735 22.65 15.6731C22.65 16.6757 22.4667 17.5374 22.1001 18.2581C21.7366 18.9788 21.2102 19.5334 20.5208 19.9219C19.8315 20.3073 18.998 20.5 18.0204 20.5ZM16.3566 19.231H17.9405C18.6737 19.231 19.2832 19.0931 19.7688 18.8174C20.2545 18.5385 20.618 18.1359 20.8592 17.6095C21.1005 17.0799 21.2211 16.4345 21.2211 15.6731C21.2211 14.9179 21.1005 14.2772 20.8592 13.7508C20.6211 13.2243 20.2655 12.8248 19.7923 12.5522C19.3192 12.2796 18.7317 12.1433 18.0298 12.1433H16.3566V19.231Z" fill="#111111"/>
</svg>
