<svg width="137" height="35" viewBox="0 0 137 35" fill="none" xmlns="http://www.w3.org/2000/svg">
<path d="M6.69688 29.7054C4.4 29.3622 2.1752 29.0272 0 28.6997C0 25.6837 0 22.7499 0 19.6973C8.62968 20.7206 17.14 21.7297 25.5965 22.7325C25.5965 25.999 25.5965 29.2026 25.5965 32.5445C19.2138 31.5847 12.9914 30.6491 6.69688 29.7054Z" fill="#083876"/>
<path d="M18.045 5.61683C23.7378 6.16138 29.3556 6.69507 34.9619 7.22766C34.9619 10.2191 34.9619 13.1729 34.9619 16.2327C26.8137 15.4546 18.7967 14.689 10.8107 13.9263C10.8107 10.9169 10.8107 7.98955 10.8107 4.93358C13.2796 5.16545 15.6248 5.38571 18.045 5.61683Z" fill="#083876"/>
<path d="M9.99623 14.9828C11.0589 14.9458 12.0695 14.8492 13.0631 14.9404C19.2843 15.5119 25.5018 16.1242 31.7202 16.7256C32.6347 16.814 33.5479 16.9161 34.4944 17.1907C34.2492 17.3439 34.01 17.5081 33.7579 17.6486C31.3244 19.0048 28.8995 20.3773 26.4436 21.691C26.0169 21.9193 25.4422 22.0232 24.9608 21.967C17.2811 21.0701 9.60554 20.1372 1.9287 19.215C1.5095 19.1647 1.08761 19.1371 0.666978 19.0989C0.649497 19.0091 0.632014 18.9193 0.614532 18.8295C3.72178 17.5563 6.82903 16.2832 9.99623 14.9828Z" fill="#56B84C"/>
<path d="M38.8305 1.85015C39.9933 1.93906 41.0789 2.02254 42.4104 2.12493C42.0076 2.40246 41.8209 2.5444 41.622 2.66616C39.7169 3.83243 37.8222 5.01709 35.8928 6.1411C35.4971 6.37168 34.9574 6.50062 34.5038 6.45863C27.0265 5.76637 19.5522 5.03965 12.0776 4.31731C11.8982 4.29997 11.7224 4.24415 11.5166 4.04705C12.4575 3.68972 13.397 3.32863 14.3395 2.97581C16.4285 2.19379 18.4879 1.30773 20.6226 0.683835C21.6295 0.389562 22.7881 0.517433 23.8672 0.598754C28.4209 0.941906 32.9707 1.33891 37.5217 1.71835C37.9329 1.75263 38.3428 1.80224 38.8305 1.85015Z" fill="#57B94D"/>
<path d="M38.6822 31.4368C37.5173 31.4629 37.3737 31.3069 37.3452 30.2471C37.2877 28.1105 37.2079 25.9744 37.1327 23.8383C37.1249 23.6171 37.1321 23.3775 37.0505 23.181C36.9251 22.8787 36.7288 22.6063 36.5625 22.3212C36.4017 22.6222 36.153 22.9076 36.0973 23.2272C35.9525 24.0578 35.6107 24.4229 34.8743 24.3649C34.0991 24.3038 33.9715 23.7583 33.9794 23.1225C33.9911 22.1722 34.4557 21.4307 35.2358 21.0037C38.0742 19.4501 41.0055 19.2689 43.9212 20.7473C44.5398 21.0609 44.9712 21.7499 45.6236 22.4004C46.3837 22.461 46.3837 22.461 47.2524 24.6303C47.4117 24.1418 47.5244 23.7325 47.6772 23.3392C48.401 21.4761 50.1644 20.733 51.9938 21.5097C52.9441 21.9132 53.0905 22.9373 52.2367 23.5208C52.0429 23.6533 51.6078 23.5916 51.3671 23.4618C50.1138 22.7862 49.3849 22.9905 49.0536 24.4172C48.7369 25.7811 48.6723 27.2073 48.5364 28.61C48.4859 29.1314 48.5392 29.6642 48.56 30.1912C48.5889 30.9202 48.3187 31.3442 47.5329 31.3904C46.7616 31.4356 46.5875 31.0221 46.4667 30.3489C46.169 28.6895 45.7856 27.0454 45.4184 25.3993C45.3605 25.1398 45.2075 24.9019 45.0397 24.5203C43.9467 25.8197 42.6153 26.5422 41.1143 26.9692C40.9553 27.0144 40.7974 27.0641 40.6373 27.1048C39.2443 27.4588 39.2454 27.4583 39.2956 28.9408C39.3135 29.467 39.3979 30.0063 39.3113 30.5153C39.2561 30.8396 38.9424 31.1192 38.6822 31.4368ZM42.3696 24.5597C42.7106 24.1206 43.402 23.5803 43.3126 23.2655C43.1693 22.7611 42.5746 22.2463 42.0507 22.0266C41.3351 21.7264 40.5113 21.6646 39.7258 21.5662C39.1973 21.5001 38.9054 21.7678 38.9568 22.3597C39.0335 23.2444 39.0836 24.1316 39.1332 25.0184C39.1623 25.5394 39.4254 25.7243 39.8961 25.5517C40.693 25.2594 41.479 24.9369 42.3696 24.5597Z" fill="#5AB850"/>
<path d="M49.2872 3.2615C51.7587 2.6651 53.9727 3.01774 56.0276 4.6127C55.6502 5.10918 55.3209 5.54247 55.0228 5.93481C54.1629 5.58111 53.384 5.16168 52.5532 4.93805C50.3033 4.33242 48.0559 5.39635 47.0829 7.44215C46.0026 9.71335 46.5902 12.5806 48.4323 14.027C50.1979 15.4132 52.8616 15.3123 54.6192 13.7924C55.0155 13.4497 55.3137 12.2574 54.9858 11.9035C54.769 11.6695 54.3237 11.6507 53.9041 11.5097C53.9041 11.0745 53.9041 10.5635 53.9041 9.98286C54.5861 9.98286 55.2699 9.94848 55.9486 9.9933C56.534 10.032 56.8314 10.4343 56.8356 11.0066C56.849 12.8341 56.8406 14.6617 56.8406 16.5443C56.2693 16.5443 55.7382 16.5443 55.1622 16.5443C55.1622 16.1541 55.1622 15.8 55.1622 15.3048C53.0962 16.9018 50.9121 17.281 48.5813 16.351C46.911 15.6846 45.7577 14.4462 45.0939 12.7688C43.5176 8.78559 45.3149 4.67199 49.2872 3.2615Z" fill="#0F3C77"/>
<path d="M93.1141 20.3144C91.3051 20.7877 89.6326 20.6063 87.9454 19.7673C88.1584 19.2659 88.3493 18.8164 88.561 18.3181C90.1983 18.8744 91.8399 19.4001 93.3678 18.2039C94.2563 17.5082 94.195 16.4519 94.1569 15.4167C94.0677 15.4266 93.9683 15.4063 93.9221 15.4471C91.9625 17.1818 89.0435 16.7267 87.7973 14.4269C86.8234 12.6295 86.8398 10.7587 87.6849 8.89873C88.6954 6.67499 92.1205 5.87017 94.2353 7.96492C94.7625 6.34124 96.0804 7.23206 97.1233 6.94843C97.1233 7.53443 97.1233 8.01864 97.1233 8.59815C95.9397 8.33975 95.9924 9.11137 96.0029 9.92856C96.0295 11.9829 96.0158 14.0379 96.0106 16.0926C96.0051 18.2896 95.1936 19.4873 93.1141 20.3144ZM93.5823 13.9917C94.2871 12.9607 94.308 11.8041 94.1386 10.6353C93.9316 9.20675 93.0712 8.44116 91.7106 8.39715C90.355 8.3533 89.3702 9.05411 89.1428 10.4542C89.0097 11.2737 89.0244 12.189 89.2483 12.9821C89.8047 14.9534 91.9806 15.4763 93.5823 13.9917Z" fill="#0F3C77"/>
<path d="M65.948 22.3317C66.3603 22.8088 66.7862 23.2346 67.0479 23.7458C67.3282 24.2934 67.4539 24.9215 67.7284 25.764C68.0588 25.2269 68.2173 24.8814 68.4529 24.6018C69.3194 23.5736 70.157 22.5098 71.1201 21.5802C71.5191 21.195 72.1948 21.0014 72.7684 20.9376C73.1125 20.8994 73.6892 21.1958 73.8223 21.4951C73.9725 21.8331 73.8931 22.4865 73.6472 22.749C73.09 23.3439 72.3339 23.7437 71.727 24.2988C71.3012 24.6881 70.9882 25.2027 70.6248 25.6614C71.082 26.0196 71.4893 26.5078 72.0065 26.7102C73.2855 27.2105 74.6117 27.59 75.9254 27.9971C76.4533 28.1606 77.0022 28.3135 76.8086 29.0305C76.6369 29.6665 76.0998 29.9071 75.5097 29.7673C74.5768 29.5464 73.6553 29.2581 72.7516 28.9342C71.8199 28.6003 70.9067 28.2089 70.0013 27.8065C69.3044 27.4968 68.8861 27.7346 68.6678 28.4127C68.5415 28.8053 68.4511 29.212 68.3739 29.6179C68.2436 30.3027 67.8316 30.6126 67.1583 30.6077C66.5108 30.6029 66.4899 30.1229 66.3739 29.6443C65.8911 27.6531 65.3987 25.6631 64.8479 23.6902C64.5373 22.5774 64.6959 22.3097 65.948 22.3317Z" fill="#59B84F"/>
<path d="M104.253 8.71369C104.266 7.78243 104.806 7.33555 105.527 7.0908C106.728 6.68298 107.959 6.6248 109.187 6.96231C110.682 7.37328 111.44 8.43364 111.491 10.2083C111.523 11.346 111.48 12.4859 111.503 13.6241C111.533 15.1596 111.285 14.8232 112.653 15.0881C112.653 15.5436 112.653 16.0065 112.653 16.4677C110.835 16.9568 109.998 16.6574 109.645 15.3017C108.743 16.4781 107.604 17.0089 106.171 16.7934C104.692 16.571 103.711 15.6581 103.535 14.3309C103.343 12.888 103.959 11.7229 105.459 11.2374C106.75 10.8197 108.129 10.6782 109.525 10.4035C109.74 9.42733 109.298 8.58993 108.34 8.3543C107 8.02501 106.198 8.39834 105.904 9.51891C105.398 9.51891 104.882 9.51891 104.302 9.51891C104.285 9.26162 104.269 9.02299 104.253 8.71369ZM107.406 15.2989C108.896 14.8933 109.705 13.6996 109.575 11.8285C108.44 12.0495 107.313 12.2045 106.226 12.5061C105.631 12.6715 105.26 13.2608 105.422 13.8838C105.541 14.3393 105.89 14.7887 106.254 15.1045C106.484 15.3052 106.929 15.2562 107.406 15.2989Z" fill="#113D77"/>
<path d="M72.3119 6.96904C75.5702 6.28775 78.2971 7.88831 78.8575 10.7536C79.3946 13.4995 77.7657 16.0641 75.0843 16.6942C72.3229 17.3431 69.6254 15.834 68.8785 13.2224C68.1011 10.5043 69.4982 7.91958 72.3119 6.96904ZM75.6189 8.95103C75.3999 8.83577 75.1895 8.69843 74.9606 8.6089C73.632 8.08926 72.1517 8.52045 71.2666 9.67317C70.3723 10.8378 70.3602 12.662 71.2387 13.8768C72.0786 15.0382 73.5731 15.4972 74.9145 15.0056C77.3435 14.1153 77.782 10.8517 75.6189 8.95103Z" fill="#103D77"/>
<path d="M67.2015 9.89479C67.5585 12.0465 67.5585 12.0467 65.468 12.0471C63.8203 12.0474 62.1726 12.0472 60.4016 12.0472C60.4608 13.1746 60.855 14.046 61.7351 14.6163C63.3594 15.6689 64.881 15.2096 66.404 14.1065C66.6711 14.5381 66.9252 14.9488 67.1734 15.3499C65.1082 17.5841 61.0512 17.2462 59.3149 14.7346C58.1885 13.1052 58.1495 10.613 59.2235 8.89686C60.2326 7.28441 62.1059 6.48665 64.0967 6.84493C65.775 7.14698 66.725 8.23508 67.2015 9.89479ZM64.2791 8.53508C62.4934 7.80781 60.796 8.73371 60.5379 10.6145C62.1453 10.6145 63.747 10.6145 65.3785 10.6145C65.4041 9.7245 65.0498 9.08441 64.2791 8.53508Z" fill="#103D77"/>
<path d="M58.2979 28.7114C58.5631 28.5483 58.7743 28.3076 58.9831 28.3097C59.3161 28.313 59.7875 28.3795 59.9412 28.6016C60.1017 28.8336 60.1019 29.4319 59.9206 29.6107C58.4394 31.0711 54.5624 32.0685 52.4013 30.0848C52.028 29.7422 51.7276 29.2751 51.5164 28.8089C51.3009 28.3333 51.2379 27.8246 50.6016 27.6601C50.4379 27.6177 50.2541 27.1512 50.2975 26.9215C50.3549 26.6175 50.6103 26.131 50.8096 26.116C51.4168 26.0704 51.6431 25.6937 51.9169 25.2632C53.0856 23.4254 55.081 22.5295 57.0071 23.0768C57.636 23.2555 58.2478 23.6651 58.7424 24.1103C59.3468 24.6542 59.5615 25.42 59.2926 26.2406C59.0263 27.0528 58.3653 27.4062 57.5984 27.5042C56.5361 27.6399 55.4607 27.6685 54.395 27.7822C54.0713 27.8167 53.761 27.9807 53.4446 28.0854C53.6962 28.4164 53.8789 28.8863 54.2115 29.0544C55.5921 29.7519 56.9374 29.3733 58.2979 28.7114ZM57.0581 25.217C55.9538 24.306 54.1415 24.6818 53.5365 26.1122C54.7598 26.04 55.9065 26.1214 57.0138 25.6984C57.0839 25.6716 57.0842 25.459 57.0581 25.217Z" fill="#5AB951"/>
<path d="M130.677 24.5613C130.837 24.8184 130.96 25.027 131.109 25.2799C131.836 24.2938 132.726 23.7102 133.942 23.7891C135.122 23.8658 135.873 24.4668 136.024 25.6518C136.152 26.6636 136.111 27.6979 136.137 28.7224C136.148 29.1356 136.139 29.5493 136.139 30.0093C136.443 30.0771 136.698 30.1337 137 30.2009C137 30.5649 137 30.9404 137 31.3178C136.954 31.3484 136.911 31.4012 136.865 31.4036C134.736 31.5187 134.687 31.469 134.685 29.3432C134.684 28.3997 134.712 27.4537 134.654 26.5135C134.572 25.2033 133.516 24.7057 132.437 25.452C131.592 26.0367 131.29 26.9121 131.279 27.9051C131.268 29.0387 131.277 30.1725 131.277 31.3631C130.772 31.3631 130.324 31.3631 129.795 31.3631C129.795 30.3936 129.795 29.4573 129.795 28.5209C129.795 27.9658 129.809 27.4103 129.791 26.8558C129.769 26.1886 129.792 25.4771 128.994 25.1946C128.324 24.9574 127.43 25.2693 127.008 26.0288C126.696 26.5879 126.477 27.2556 126.425 27.8922C126.333 29.0209 126.4 30.1628 126.4 31.3604C125.907 31.3604 125.46 31.3604 124.931 31.3604C124.931 29.335 124.931 27.3475 124.931 25.3455C124.595 25.2802 124.334 25.2294 124.062 25.1764C124.062 24.7725 124.062 24.3978 124.062 24.0311C125.801 23.7742 126.146 23.9203 126.463 25.0783C127.163 24.2925 127.962 23.6557 129.029 23.8125C129.588 23.8946 130.105 24.2699 130.677 24.5613Z" fill="#123E77"/>
<path d="M109.299 31.4417C109.249 31.5794 109.313 31.7929 109.203 31.9509C109.167 32.1003 109.191 32.2293 109.215 32.3583C108.937 33.4898 108.097 34.0286 107.082 34.3142C105.786 34.6791 104.526 34.497 103.222 33.8509C103.386 33.4699 103.542 33.1079 103.694 32.7547C106.864 33.5823 108.229 32.9028 107.942 30.6335C107.818 30.6821 107.695 30.7072 107.598 30.7717C105.92 31.8903 103.713 31.3078 102.986 29.4243C102.671 28.6073 102.54 27.623 102.644 26.7537C102.984 23.9301 105.768 22.8547 107.991 24.6141C108.637 23.881 108.821 23.8319 110.321 24.0148C110.321 24.3796 110.321 24.7526 110.321 25.1766C110.096 25.2148 109.861 25.2548 109.5 25.3482C109.322 25.519 109.223 25.6361 109.223 25.7537C109.213 27.5383 109.211 29.3229 109.224 31.1074C109.225 31.2446 109.233 31.305 109.299 31.4417ZM105.495 29.9338C106.714 30.1801 107.6 29.8575 107.824 28.848C108.009 28.0164 107.971 27.0947 107.838 26.2434C107.727 25.5309 107.093 25.1783 106.378 25.088C105.65 24.996 105.008 25.1639 104.529 25.7669C103.756 26.7414 103.839 29.3707 105.495 29.9338Z" fill="#144078"/>
<path d="M118.621 10.0267C119.377 10.4245 120.09 10.7766 120.802 11.1314C121.318 11.3891 121.871 11.594 122.341 11.9201C123.943 13.0308 123.897 15.1529 122.278 16.2278C120.516 17.3975 117.531 16.8502 116.21 15.0849C116.482 14.7227 116.761 14.351 117.092 13.9115C117.303 14.0819 117.486 14.2273 117.667 14.3751C118.496 15.0516 119.439 15.4734 120.493 15.1938C120.918 15.081 121.411 14.6493 121.555 14.247C121.646 13.9937 121.223 13.4147 120.893 13.18C120.385 12.8197 119.754 12.6405 119.184 12.3646C118.665 12.113 118.133 11.8746 117.651 11.56C116.771 10.985 116.323 10.1555 116.484 9.07929C116.65 7.96921 117.335 7.2175 118.388 7.03231C119.367 6.86004 120.417 6.80283 121.392 6.96588C122.843 7.20868 123.248 7.94443 123.082 9.52256C122.58 9.52256 122.071 9.52256 121.562 9.52256C121.609 9.45962 121.656 9.39668 121.703 9.33373C121.359 9.0137 121.037 8.46176 120.665 8.42452C120.001 8.35812 119.254 8.48163 118.643 8.75668C118.18 8.96532 118.218 9.54589 118.621 10.0267Z" fill="#103D77"/>
<path d="M80.6656 22.3717C80.3927 22.3717 80.1198 22.3717 79.7798 22.3717C79.7798 21.9254 79.7798 21.5312 79.7798 21.0903C81.5058 21.0903 83.2386 20.9645 84.9445 21.1265C86.5781 21.2815 87.5202 22.6484 87.4914 24.3835C87.4632 26.0779 86.4235 27.3461 84.7952 27.5335C83.9597 27.6297 83.1044 27.5504 82.1758 27.5504C82.1758 28.9001 82.1758 30.1049 82.1758 31.4134C81.7482 31.4134 81.43 31.4609 81.0294 31.3584C80.9747 28.5964 80.9564 25.8894 80.9359 23.23C80.9337 22.9432 80.7599 22.6578 80.6656 22.3717ZM83.7865 26.3066C84.1106 26.2618 84.449 26.2621 84.756 26.1632C85.5434 25.9097 85.9811 25.1528 85.9448 24.1939C85.9101 23.2754 85.4254 22.5268 84.6235 22.426C83.8271 22.3259 83.0085 22.4041 82.1944 22.4041C82.1944 23.7301 82.1944 24.9829 82.1944 26.3072C82.7162 26.3072 83.177 26.3072 83.7865 26.3066Z" fill="#134079"/>
<path d="M118.643 25.1353C118.456 25.3997 118.332 25.6321 118.173 25.9281C117.846 25.9281 117.444 25.9281 117.048 25.9281C116.829 24.7268 117.105 24.2222 118.224 23.956C118.779 23.8241 119.373 23.7737 119.941 23.8076C121.662 23.9103 122.487 24.7785 122.548 26.5078C122.578 27.3677 122.584 28.2307 122.548 29.0901C122.521 29.7338 122.547 30.2731 123.426 30.1721C123.426 30.5899 123.426 30.9429 123.426 31.2926C122.064 31.6522 121.51 31.4763 121.058 30.5073C120.384 31.3063 119.549 31.6915 118.511 31.5712C117.333 31.4347 116.507 30.6842 116.366 29.6037C116.227 28.5368 116.753 27.5948 117.894 27.2339C118.877 26.9228 119.924 26.814 120.972 26.61C121.168 25.6062 120.689 24.9903 119.598 24.9771C119.301 24.9735 119.003 25.0587 118.643 25.1353ZM120.185 30.0382C120.843 29.4905 121.103 28.7708 121.116 27.7636C120.289 27.8771 119.503 27.9199 118.752 28.108C118.114 28.2678 117.698 28.7411 117.863 29.4704C118.023 30.1808 118.569 30.4252 119.233 30.3767C119.521 30.3557 119.799 30.2071 120.185 30.0382Z" fill="#144078"/>
<path d="M97.0758 23.8108C99.0827 23.7148 100.595 24.5667 101.246 26.1132C101.892 27.6499 101.52 29.4414 100.327 30.5397C99.0585 31.7076 97.1223 31.9277 95.563 31.0811C94.1648 30.322 93.3925 28.7169 93.639 27.0823C93.9019 25.339 95.0863 24.1907 97.0758 23.8108ZM96.5638 30.085C96.7469 30.1418 96.9267 30.2147 97.1136 30.2527C98.2064 30.475 99.2864 29.9321 99.7844 28.9186C100.304 27.8615 100.063 26.4673 99.229 25.702C98.4225 24.962 97.1779 24.8571 96.2442 25.4539C94.6096 26.4986 94.7416 29.1907 96.5638 30.085Z" fill="#133F77"/>
<path d="M82.2091 16.5992C81.7828 16.599 81.4285 16.599 80.9594 16.599C80.9594 15.9186 80.9594 15.2941 80.9594 14.6695C80.9593 13.0885 80.9412 11.5072 80.9667 9.92665C80.9796 9.12577 81.0849 8.31563 79.83 8.60884C79.83 8.04565 79.83 7.58478 79.83 7.12643C81.9117 6.5462 82.7122 6.98514 82.8221 8.9578C83.6216 7.61668 84.5667 6.72786 86.1777 6.90609C86.1777 7.47957 86.1777 8.04424 86.1777 8.71877C85.2254 8.62054 84.3483 8.92546 83.6975 9.735C83.0006 10.6018 82.8401 11.6362 82.8282 12.706C82.8159 13.8153 82.8083 14.9253 82.8357 16.0341C82.8464 16.467 82.7179 16.6615 82.2091 16.5992Z" fill="#0F3D77"/>
<path d="M99.3972 15.5443C99.39 13.5854 99.388 11.6973 99.3865 9.80914C99.3855 8.67067 99.3857 8.67067 98.2682 8.52481C98.2526 8.30085 98.2251 8.06247 98.2223 7.82379C98.2195 7.57939 98.2408 7.3347 98.2547 7.01634C98.974 7.01634 99.6543 6.98272 100.33 7.02531C101.082 7.07275 101.248 7.63684 101.251 8.26974C101.259 10.1301 101.287 11.9913 101.241 13.8505C101.221 14.65 101.328 15.1895 102.358 14.9883C102.358 15.5241 102.358 16.005 102.358 16.4923C100.572 16.901 99.7061 16.6471 99.3972 15.5443Z" fill="#0E3B77"/>
<path d="M114.984 23.9573C115.318 23.9162 115.589 23.8961 115.937 23.8703C115.937 24.3477 115.937 24.7725 115.937 25.2032C114.213 25.4281 113.305 26.1513 113.348 28.765C113.361 29.6193 113.35 30.4739 113.35 31.3742C112.849 31.3742 112.419 31.3742 111.888 31.3742C111.888 29.362 111.888 27.3571 111.888 25.3398C111.556 25.2812 111.319 25.2394 111.032 25.1887C111.032 24.8145 111.032 24.4393 111.031 24.0637C112.581 23.6835 113.094 23.924 113.386 25.0982C113.883 24.7355 114.402 24.3569 114.984 23.9573Z" fill="#143F77"/>
<path d="M91.9018 24.0272C92.3046 23.9587 92.6481 23.913 93.0406 23.8608C93.0406 24.3939 93.0406 24.8275 93.0406 25.2569C91.3319 25.4686 90.6 26.1911 90.4738 27.9436C90.3928 29.0683 90.4586 30.2038 90.4586 31.3756C89.9232 31.3756 89.4971 31.3756 89.0075 31.3756C89.0075 29.6422 88.9838 27.9521 89.0191 26.2631C89.0332 25.5884 88.96 25.0909 88.0947 25.2009C88.0947 24.7981 88.0947 24.4447 88.0947 24.0938C89.581 23.6412 90.2625 23.9478 90.4771 25.1561C90.932 24.787 91.3872 24.4184 91.9018 24.0272Z" fill="#0F3B75"/>
<path d="M59.8473 26.1277C60.1646 25.8922 60.4461 25.605 60.7584 25.5654C61.8765 25.4238 63.0046 25.3588 64.13 25.2797C64.6981 25.2397 65.1156 25.4525 65.1675 26.0838C65.2206 26.7306 64.7435 26.8815 64.2614 26.9297C63.1121 27.0445 61.9578 27.1072 60.8073 27.2115C60.0414 27.2809 59.7282 26.9451 59.8473 26.1277Z" fill="#5DB954"/>
<path d="M115.387 2.96438C115.481 3.17421 115.576 3.39941 115.523 3.58197C115.318 4.29881 115.065 5.00165 114.833 5.71077C114.475 6.80495 114.476 6.80533 113.183 6.6202C113.422 5.49389 113.645 4.36852 113.917 3.25496C113.949 3.12341 114.233 3.0014 114.416 2.97237C114.711 2.92563 115.018 2.96004 115.387 2.96438Z" fill="#133F77"/>
<path d="M101.104 4.79714C100.598 5.01264 100.094 5.15257 99.4863 5.32138C99.4863 4.50707 99.4863 3.89211 99.4863 3.24131C100.006 3.24131 100.491 3.24131 101.106 3.24131C101.106 3.74984 101.106 4.2357 101.104 4.79714Z" fill="#1B4479"/>
<path d="M109.299 31.5251C109.294 31.8585 109.299 32.1919 109.134 32.6086C109.121 30.8241 109.213 27.5383 109.223 25.7537C109.223 25.6361 109.322 25.519 109.433 25.3759C109.484 27.357 109.334 29.4448 109.299 31.5251Z" fill="#042C5F"/>
<path d="M80.6987 22.4399C80.7863 22.6489 80.9337 22.9432 80.9359 23.23C80.9564 25.8894 81.0308 28.6203 81.0294 31.3584C80.9433 31.1914 80.7025 30.875 80.7006 30.6288C80.6795 27.928 80.7089 25.218 80.6987 22.4399Z" fill="#042C5F"/>
<path d="M109.229 32.3011C109.191 32.2293 109.167 32.1003 109.176 31.9912C109.22 32.0888 109.231 32.1664 109.229 32.3011Z" fill="#042C5F"/>
</svg>
